<svg width="56" height="40" viewBox="0 0 56 40" fill="none" xmlns="http://www.w3.org/2000/svg">
<rect width="56" height="40" rx="20" fill="#141414"/>
<path fill-rule="evenodd" clip-rule="evenodd" d="M23 11.25C23.4142 11.25 23.75 11.5858 23.75 12V13.6676C26.5777 13.4158 29.4223 13.4158 32.25 13.6676V12C32.25 11.5858 32.5858 11.25 33 11.25C33.4142 11.25 33.75 11.5858 33.75 12V13.8164C35.243 14.0275 36.4226 15.2085 36.6222 16.7148L36.7088 17.3678C37.0728 20.1141 37.0414 22.8984 36.6154 25.6359C36.4044 26.9919 35.3028 28.0335 33.937 28.1681L32.744 28.2858C29.589 28.5969 26.411 28.5969 23.2559 28.2858L22.0629 28.1681C20.6972 28.0335 19.5955 26.9919 19.3845 25.6359C18.9586 22.8984 18.9271 20.1141 19.2911 17.3678L19.3777 16.7148C19.5774 15.2085 20.7569 14.0275 22.25 13.8164V12C22.25 11.5858 22.5858 11.25 23 11.25ZM23.4452 15.2028C26.4744 14.9041 29.5256 14.9041 32.5548 15.2028L33.4602 15.2921C34.327 15.3776 35.0208 16.0485 35.1352 16.9119L35.2218 17.5649C35.252 17.793 35.2794 18.0214 35.3039 18.25H20.6961C20.7205 18.0214 20.7479 17.793 20.7781 17.5649L20.8647 16.9119C20.9791 16.0485 21.673 15.3776 22.5397 15.2921L23.4452 15.2028ZM20.5768 19.75C20.4787 21.6381 20.5754 23.5332 20.8667 25.4052C20.9725 26.0854 21.5251 26.6078 22.2101 26.6754L23.4031 26.793C26.4603 27.0945 29.5397 27.0945 32.5968 26.793L33.7898 26.6754C34.4748 26.6078 35.0274 26.0854 35.1333 25.4052C35.4246 23.5332 35.5213 21.6381 35.4231 19.75H20.5768Z" fill="white"/>
</svg>
