<svg width="76" height="71" viewBox="0 0 76 71" fill="none" xmlns="http://www.w3.org/2000/svg">
<rect width="76" height="71" rx="17" fill="#CFDDDB"/>
<path opacity="0.5" d="M26.1186 22V11.8182H32.4325V13.1406H27.6548V16.2429H31.9801V17.5604H27.6548V22H26.1186ZM36.9331 22.1541C36.1807 22.1541 35.5327 21.9934 34.9892 21.6719C34.4489 21.3471 34.0313 20.8913 33.7363 20.3047C33.4447 19.7147 33.2988 19.0237 33.2988 18.2315C33.2988 17.4493 33.4447 16.7599 33.7363 16.1634C34.0313 15.5668 34.4423 15.1011 34.9693 14.7663C35.4996 14.4316 36.1194 14.2642 36.8287 14.2642C37.2595 14.2642 37.6771 14.3355 38.0815 14.478C38.4859 14.6205 38.8488 14.8442 39.1703 15.1491C39.4918 15.4541 39.7453 15.8501 39.9309 16.3374C40.1165 16.8213 40.2093 17.4096 40.2093 18.1023V18.6293H34.139V17.5156H38.7527C38.7527 17.1245 38.6731 16.7782 38.514 16.4766C38.3549 16.1716 38.1312 15.9313 37.8429 15.7557C37.5578 15.58 37.2231 15.4922 36.8386 15.4922C36.421 15.4922 36.0564 15.5949 35.7449 15.8004C35.4366 16.0026 35.198 16.2678 35.0289 16.5959C34.8632 16.9207 34.7804 17.2737 34.7804 17.6548V18.5249C34.7804 19.0353 34.8699 19.4695 35.0488 19.8274C35.2311 20.1854 35.4847 20.4588 35.8095 20.6477C36.1343 20.8333 36.5138 20.9261 36.948 20.9261C37.2297 20.9261 37.4866 20.8864 37.7186 20.8068C37.9506 20.724 38.1511 20.6013 38.3201 20.4389C38.4892 20.2765 38.6184 20.076 38.7079 19.8374L40.1149 20.0909C40.0022 20.5052 39.8 20.8681 39.5083 21.1797C39.22 21.4879 38.8571 21.7282 38.4196 21.9006C37.9854 22.0696 37.4899 22.1541 36.9331 22.1541ZM41.978 22V11.8182H43.4645V15.6016H43.554C43.6402 15.4425 43.7644 15.2585 43.9268 15.0497C44.0893 14.8409 44.3146 14.6586 44.603 14.5028C44.8913 14.3438 45.2725 14.2642 45.7464 14.2642C46.3629 14.2642 46.9131 14.42 47.397 14.7315C47.8809 15.0431 48.2604 15.4922 48.5355 16.0788C48.8139 16.6655 48.9531 17.3714 48.9531 18.1967C48.9531 19.022 48.8156 19.7296 48.5405 20.3196C48.2654 20.9062 47.8875 21.3587 47.407 21.6768C46.9264 21.9917 46.3778 22.1491 45.7614 22.1491C45.2973 22.1491 44.9179 22.0713 44.6229 21.9155C44.3312 21.7597 44.1025 21.5774 43.9368 21.3686C43.7711 21.1598 43.6435 20.9742 43.554 20.8118H43.4297V22H41.978ZM43.4347 18.1818C43.4347 18.7187 43.5125 19.1894 43.6683 19.5938C43.8241 19.9981 44.0495 20.3146 44.3445 20.5433C44.6394 20.7687 45.0007 20.8814 45.4283 20.8814C45.8724 20.8814 46.2436 20.7637 46.5419 20.5284C46.8402 20.2898 47.0656 19.9666 47.218 19.5589C47.3738 19.1513 47.4517 18.6922 47.4517 18.1818C47.4517 17.678 47.3755 17.2256 47.223 16.8246C47.0739 16.4235 46.8485 16.107 46.5469 15.875C46.2486 15.643 45.8757 15.527 45.4283 15.527C44.9974 15.527 44.6328 15.638 44.3345 15.8601C44.0395 16.0821 43.8158 16.392 43.6634 16.7898C43.5109 17.1875 43.4347 17.6515 43.4347 18.1818Z" fill="#242424"/>
<path d="M21.4859 54V50.5866L28.6482 44.3161C29.1851 43.8303 29.6421 43.386 30.0192 42.9833C30.3964 42.5742 30.684 42.1651 30.8822 41.756C31.0803 41.3406 31.1794 40.8899 31.1794 40.4041C31.1794 39.8608 31.0611 39.3974 30.8246 39.0138C30.5881 38.6239 30.2621 38.3235 29.8467 38.1126C29.4312 37.9016 28.955 37.7962 28.418 37.7962C27.8747 37.7962 27.3985 37.908 26.9894 38.1317C26.5803 38.3491 26.2607 38.6655 26.0306 39.081C25.8069 39.4964 25.695 40.0014 25.695 40.5959H21.1982C21.1982 39.2599 21.4986 38.1062 22.0995 37.1346C22.7004 36.163 23.5441 35.4151 24.6308 34.891C25.7238 34.3604 26.9926 34.0952 28.4372 34.0952C29.9266 34.0952 31.221 34.3445 32.3204 34.843C33.4198 35.3416 34.27 36.0384 34.8708 36.9332C35.4781 37.8217 35.7817 38.854 35.7817 40.0302C35.7817 40.7781 35.6315 41.5195 35.331 42.2546C35.0306 42.9897 34.4905 43.8015 33.7107 44.69C32.9372 45.5785 31.8378 46.6428 30.4124 47.8828L28.0633 50.0497V50.1744H36.0214V54H21.4859ZM45.8341 54.2685C44.3064 54.2685 42.9417 54.0256 41.74 53.5398C40.5447 53.0476 39.605 52.3828 38.9211 51.5455C38.2435 50.7017 37.9048 49.7493 37.9048 48.6882C37.9048 47.8764 38.0997 47.1317 38.4896 46.4542C38.8795 45.7766 39.4069 45.2141 40.0717 44.7667C40.7428 44.3129 41.4907 44.022 42.3153 43.8942V43.7408C41.235 43.5426 40.3497 43.0408 39.6594 42.2354C38.9754 41.43 38.6335 40.4872 38.6335 39.407C38.6335 38.3842 38.9435 37.4734 39.5635 36.6744C40.1899 35.8754 41.0433 35.2457 42.1235 34.7855C43.2102 34.3253 44.447 34.0952 45.8341 34.0952C47.2212 34.0952 48.4548 34.3253 49.5351 34.7855C50.6217 35.2457 51.4751 35.8754 52.0951 36.6744C52.7215 37.4734 53.0347 38.3842 53.0347 39.407C53.0347 40.4936 52.6864 41.4396 51.9896 42.245C51.2993 43.044 50.4204 43.5426 49.3529 43.7408V43.8942C50.1711 44.022 50.9126 44.3129 51.5773 44.7667C52.2485 45.2141 52.779 45.7766 53.169 46.4542C53.5653 47.1317 53.7634 47.8764 53.7634 48.6882C53.7634 49.7493 53.4215 50.7017 52.7375 51.5455C52.0536 52.3828 51.1139 53.0476 49.9186 53.5398C48.7297 54.0256 47.3682 54.2685 45.8341 54.2685ZM45.8341 50.9031C46.4158 50.9031 46.9271 50.7944 47.3682 50.5771C47.8092 50.3533 48.1544 50.0433 48.4037 49.647C48.6594 49.2507 48.7872 48.8033 48.7872 48.3047C48.7872 47.7933 48.6594 47.3395 48.4037 46.9432C48.148 46.5469 47.7965 46.2369 47.349 46.0131C46.908 45.783 46.403 45.668 45.8341 45.668C45.2716 45.668 44.7666 45.783 44.3192 46.0131C43.8717 46.2369 43.5202 46.5469 43.2645 46.9432C43.0088 47.3395 42.881 47.7933 42.881 48.3047C42.881 48.8033 43.0056 49.2507 43.2549 49.647C43.5106 50.0369 43.859 50.3438 44.3 50.5675C44.7474 50.7912 45.2588 50.9031 45.8341 50.9031ZM45.8341 42.3217C46.3327 42.3217 46.7737 42.2195 47.1572 42.0149C47.5472 41.8104 47.8508 41.5259 48.0681 41.1616C48.2918 40.7972 48.4037 40.3849 48.4037 39.9247C48.4037 39.4645 48.2918 39.0586 48.0681 38.707C47.8508 38.3555 47.5504 38.0806 47.1668 37.8825C46.7833 37.6779 46.3391 37.5756 45.8341 37.5756C45.3355 37.5756 44.8913 37.6779 44.5014 37.8825C44.1114 38.0806 43.8078 38.3555 43.5905 38.707C43.3732 39.0586 43.2645 39.4645 43.2645 39.9247C43.2645 40.3849 43.3732 40.7972 43.5905 41.1616C43.8142 41.5195 44.121 41.804 44.5109 42.0149C44.9009 42.2195 45.3419 42.3217 45.8341 42.3217Z" fill="#242424"/>
</svg>
