<svg width="76" height="71" viewBox="0 0 76 71" fill="none" xmlns="http://www.w3.org/2000/svg">
<rect width="76" height="71" rx="17" fill="#C8A2D6"/>
<path opacity="0.5" d="M26.1186 11.8182H27.983L31.2244 19.733H31.3438L34.5852 11.8182H36.4496V22H34.9879V14.6321H34.8935L31.8906 21.9851H30.6776L27.6747 14.6271H27.5803V22H26.1186V11.8182ZM40.786 22.169C40.3021 22.169 39.8646 22.0795 39.4735 21.9006C39.0824 21.7183 38.7725 21.4548 38.5439 21.1101C38.3185 20.7654 38.2058 20.3428 38.2058 19.8423C38.2058 19.4115 38.2886 19.0568 38.4544 18.7784C38.6201 18.5 38.8438 18.2796 39.1255 18.1172C39.4073 17.9548 39.7221 17.8321 40.0701 17.7493C40.4181 17.6664 40.7728 17.6035 41.1341 17.5604C41.5914 17.5073 41.9627 17.4643 42.2477 17.4311C42.5327 17.3946 42.7399 17.3366 42.8691 17.2571C42.9984 17.1776 43.063 17.0483 43.063 16.8693V16.8345C43.063 16.4003 42.9404 16.0639 42.6951 15.8253C42.4532 15.5866 42.0919 15.4673 41.6113 15.4673C41.1109 15.4673 40.7164 15.5784 40.4281 15.8004C40.1431 16.0192 39.9458 16.2628 39.8365 16.5312L38.4395 16.2131C38.6052 15.7491 38.8471 15.3745 39.1653 15.0895C39.4868 14.8011 39.8564 14.5923 40.274 14.4631C40.6916 14.3305 41.1307 14.2642 41.5914 14.2642C41.8964 14.2642 42.2195 14.3007 42.5609 14.3736C42.9056 14.4432 43.2271 14.5724 43.5254 14.7614C43.827 14.9503 44.0739 15.2204 44.2662 15.5717C44.4584 15.9197 44.5545 16.3722 44.5545 16.929V22H43.1028V20.956H43.0431C42.947 21.1482 42.8029 21.3371 42.6106 21.5227C42.4184 21.7083 42.1715 21.8625 41.8699 21.9851C41.5682 22.1077 41.207 22.169 40.786 22.169ZM41.1092 20.9759C41.5202 20.9759 41.8715 20.8946 42.1632 20.7322C42.4582 20.5698 42.6819 20.3577 42.8343 20.0959C42.9901 19.8307 43.068 19.5473 43.068 19.2457V18.2614C43.015 18.3144 42.9122 18.3641 42.7598 18.4105C42.6106 18.4536 42.4399 18.4917 42.2477 18.5249C42.0555 18.5547 41.8682 18.5829 41.6859 18.6094C41.5036 18.6326 41.3511 18.6525 41.2285 18.669C40.9402 18.7055 40.6767 18.7668 40.438 18.853C40.2027 18.9392 40.0138 19.0634 39.8713 19.2259C39.7321 19.3849 39.6625 19.5971 39.6625 19.8622C39.6625 20.2301 39.7984 20.5085 40.0701 20.6974C40.3419 20.883 40.6883 20.9759 41.1092 20.9759ZM46.5344 22V14.3636H47.9712V15.5767H48.0508C48.19 15.1657 48.4353 14.8426 48.7866 14.6072C49.1412 14.3686 49.5423 14.2493 49.9897 14.2493C50.0825 14.2493 50.1919 14.2526 50.3178 14.2592C50.4471 14.2659 50.5482 14.2741 50.6211 14.2841V15.706C50.5614 15.6894 50.4554 15.6712 50.3029 15.6513C50.1504 15.6281 49.998 15.6165 49.8455 15.6165C49.4942 15.6165 49.181 15.6911 48.9059 15.8402C48.6341 15.986 48.4187 16.1899 48.2596 16.4517C48.1005 16.7102 48.021 17.0052 48.021 17.3366V22H46.5344Z" fill="#242424"/>
<path d="M29.6587 54.4794C27.9456 54.4794 26.4691 54.0735 25.229 53.2617C23.989 52.4435 23.0334 51.2706 22.3622 49.7429C21.691 48.2088 21.3586 46.3647 21.365 44.2106C21.3714 42.0565 21.707 40.2283 22.3718 38.7262C23.0429 37.2177 23.9954 36.0703 25.229 35.2841C26.4691 34.4915 27.9456 34.0952 29.6587 34.0952C31.3718 34.0952 32.8483 34.4915 34.0884 35.2841C35.3349 36.0703 36.2937 37.2177 36.9648 38.7262C37.636 40.2347 37.9684 42.0629 37.962 44.2106C37.962 46.3711 37.6264 48.2184 36.9552 49.7525C36.2841 51.2866 35.3285 52.4595 34.0884 53.2713C32.8547 54.0767 31.3782 54.4794 29.6587 54.4794ZM29.6587 50.5962C30.6814 50.5962 31.5092 50.0753 32.142 49.0334C32.7748 47.9851 33.088 46.3775 33.0817 44.2106C33.0817 42.7915 32.9378 41.6218 32.6502 40.7013C32.3626 39.7745 31.963 39.0842 31.4517 38.6303C30.9403 38.1765 30.3427 37.9496 29.6587 37.9496C28.6424 37.9496 27.821 38.4641 27.1946 39.4933C26.5682 40.516 26.2518 42.0884 26.2454 44.2106C26.239 45.6488 26.3764 46.8409 26.6577 47.7869C26.9453 48.733 27.348 49.4393 27.8657 49.9059C28.3835 50.3661 28.9812 50.5962 29.6587 50.5962ZM40.1402 54V50.5866L47.3025 44.3161C47.8394 43.8303 48.2965 43.386 48.6736 42.9833C49.0507 42.5742 49.3384 42.1651 49.5365 41.756C49.7347 41.3406 49.8337 40.8899 49.8337 40.4041C49.8337 39.8608 49.7155 39.3974 49.479 39.0138C49.2425 38.6239 48.9165 38.3235 48.501 38.1126C48.0855 37.9016 47.6093 37.7962 47.0724 37.7962C46.529 37.7962 46.0528 37.908 45.6438 38.1317C45.2347 38.3491 44.9151 38.6655 44.6849 39.081C44.4612 39.4964 44.3494 40.0014 44.3494 40.5959H39.8526C39.8526 39.2599 40.153 38.1062 40.7538 37.1346C41.3547 36.163 42.1984 35.4151 43.2851 34.891C44.3781 34.3604 45.6469 34.0952 47.0916 34.0952C48.5809 34.0952 49.8753 34.3445 50.9747 34.843C52.0741 35.3416 52.9243 36.0384 53.5251 36.9332C54.1324 37.8217 54.436 38.854 54.436 40.0302C54.436 40.7781 54.2858 41.5195 53.9854 42.2546C53.6849 42.9897 53.1448 43.8015 52.365 44.69C51.5916 45.5785 50.4921 46.6428 49.0667 47.8828L46.7176 50.0497V50.1744H54.6757V54H40.1402Z" fill="#242424"/>
</svg>
