<svg width="78" height="78" viewBox="0 0 78 78" fill="none" xmlns="http://www.w3.org/2000/svg">
<rect x="0.483032" y="0.187744" width="77.034" height="77.034" rx="23.1102" fill="#DEDFE3"/>
<path d="M30.5343 34.4142V34.0542C30.5343 33.1418 31.2689 32.385 32.2158 32.3221L39.1124 31.8641L48.65 45.8356V33.5732L46.1951 33.2476V33.0767C46.1951 32.1535 46.9465 31.3917 47.9054 31.3428L54.1806 31.023V31.9214C54.1806 32.3431 53.8654 32.7038 53.4333 32.7765L51.9232 33.0306V52.8892L50.028 53.5375C48.4447 54.0792 46.6821 53.4994 45.7757 52.1388L36.5164 38.2394V51.5056L39.3664 52.0482L39.3267 52.3112C39.2023 53.1349 38.4874 53.7579 37.6226 53.7962L30.5343 54.11C30.4406 53.2242 31.108 52.4317 32.0286 52.3355L32.961 52.2381V34.5498L30.5343 34.4142Z" fill="#242424"/>
<path fill-rule="evenodd" clip-rule="evenodd" d="M47.3279 15.6079L18.9109 17.538C17.2087 17.6536 15.8893 19.0149 15.8893 20.6555V48.1507C15.8893 49.6922 16.4227 51.1899 17.4055 52.4078L23.5326 60.001C24.5232 61.2286 26.0822 61.9046 27.6951 61.8059L59.2348 59.8745C60.8513 59.7756 62.1097 58.4862 62.1097 56.9289V25.6695C62.1097 24.706 61.6206 23.8031 60.7994 23.2509L50.8152 16.5357C49.7977 15.8513 48.5665 15.5238 47.3279 15.6079ZM20.32 21.0844C19.9248 20.7933 20.1129 20.1868 20.6094 20.1514L47.519 18.2313C48.3764 18.1702 49.2284 18.405 49.9217 18.8937L55.3209 22.699C55.5259 22.8435 55.4298 23.1554 55.176 23.1691L26.6788 24.7109C25.8164 24.7575 24.9651 24.5055 24.2794 24.0005L20.32 21.0844ZM25.3422 29.5442C25.3422 28.6233 26.0901 27.8625 27.0465 27.8107L57.1761 26.1784C58.1082 26.1279 58.8929 26.841 58.8929 27.7386V54.8059C58.8929 55.7252 58.1476 56.4852 57.1931 56.5392L27.2542 58.2338C26.2169 58.2925 25.3422 57.4996 25.3422 56.5005V29.5442Z" fill="#242424"/>
</svg>
